<?xml version="1.0" encoding="utf-8"?>
<!-- Generator: Adobe Illustrator 18.0.0, SVG Export Plug-In . SVG Version: 6.00 Build 0)  -->
<!DOCTYPE svg PUBLIC "-//W3C//DTD SVG 1.1//EN" "http://www.w3.org/Graphics/SVG/1.1/DTD/svg11.dtd">
<svg version="1.1" id="Layer_1" xmlns="http://www.w3.org/2000/svg" xmlns:xlink="http://www.w3.org/1999/xlink" x="0px" y="0px"
	 viewBox="0 0 50.8 44.8" enable-background="new 0 0 50.8 44.8" xml:space="preserve">
<symbol  id="Controller" viewBox="-52.5 -30 105 60">
	<path fill="none" stroke="#7D7D7D" stroke-miterlimit="10" d="M47.9,11.5L47.9,11.5c-1,10.1-9.5,18-19.9,18c-1.9,0-15-4-28-4
		s-26.1,4-28,4c-10.4,0-18.9-7.9-19.9-18l0,0c-0.3-4.2-4.1-32.7-4.1-33c0-4.4,3.6-8,8-8c18.4,0,27.9,15.7,30.7,24c0,0,4.6,4,13.3,4
		s13.3-4,13.3-4c2.7-8.3,12.3-24,30.7-24c4.4,0,8,3.6,8,8C52-21.2,48.2,7.3,47.9,11.5z"/>
	<polygon fill="#7D7D7D" points="-20,12.8 -25.7,12.8 -25.7,18.5 -31.3,18.5 -31.3,12.8 -37,12.8 -37,7.2 -31.3,7.2 -31.3,1.5 
		-25.7,1.5 -25.7,7.2 -20,7.2 	"/>
	<path fill="#7D7D7D" d="M28,13.5c0-2.2-1.8-4-4-4c-2.2,0-4,1.8-4,4s1.8,4,4,4C26.2,17.5,28,15.7,28,13.5z"/>
	<path fill="#7D7D7D" d="M36,5.5c0-2.2-1.8-4-4-4c-2.2,0-4,1.8-4,4s1.8,4,4,4C34.2,9.5,36,7.7,36,5.5z"/>
</symbol>
<use xlink:href="#Controller"  width="105" height="60" id="XMLID_39_" x="-52.5" y="-30" transform="matrix(0.399 0 0 -0.399 24.7927 22.7274)" overflow="visible"/>
</svg>
