<?xml version="1.0" encoding="utf-8"?>
<!-- Generator: Adobe Illustrator 18.0.0, SVG Export Plug-In . SVG Version: 6.00 Build 0)  -->
<!DOCTYPE svg PUBLIC "-//W3C//DTD SVG 1.1//EN" "http://www.w3.org/Graphics/SVG/1.1/DTD/svg11.dtd">
<svg version="1.1" id="Layer_1" xmlns="http://www.w3.org/2000/svg" xmlns:xlink="http://www.w3.org/1999/xlink" x="0px" y="0px"
	 viewBox="0 0 42.4 42.4" enable-background="new 0 0 42.4 42.4" xml:space="preserve">
<symbol  id="FEEDBACK" viewBox="-36.3 -29.2 72.6 58.4">
	<g>
		<g>
			<path fill="none" stroke="#979797" stroke-miterlimit="10" d="M34.8,28.4c-0.6,0.3-1.3,0.4-1.9,0C20.1,21.4,4.5,17.7-16.4,16.8
				c-1,0-1.9-0.9-1.9-1.9V-5.2c0-1,0.8-1.9,1.9-1.9C4.5-8,20.1-11.7,32.9-18.8c0.3-0.2,0.6-0.2,0.9-0.2c0.3,0,0.7,0.1,1,0.3
				c0.6,0.3,1,1,1,1.7v43.9C35.8,27.5,35.4,28.1,34.8,28.4z"/>
			<path fill="none" stroke="#979797" stroke-miterlimit="10" d="M-21.9,14.8c0,1.1-0.9,1.9-1.9,1.9c-6.6,0-11.9-5.3-11.9-11.9
				c0-6.6,5.3-11.9,11.9-11.9c1.1,0,1.9,0.9,1.9,1.9"/>
			<path fill="none" stroke="#979797" stroke-miterlimit="10" d="M-8.9-12.4c-0.3,1-1.2,1.6-2.2,1.7l-4.5,0.2c-0.8,0-1.6-0.3-2.1-1
				c-0.5-0.6-0.6-1.5-0.4-2.2l4.1-13.3c0.3-1,1.3-1.7,2.3-1.7H-7c0,0,0,0,0,0c1.4,0,2.5,1.1,2.5,2.5c0,0.3-0.1,0.7-0.2,1L-8.9-12.4z
				"/>
		</g>
	</g>
</symbol>
<use xlink:href="#FEEDBACK"  width="72.6" height="58.4" id="XMLID_38_" x="-36.3" y="-29.2" transform="matrix(0.4417 0 0 -0.4417 20.8701 20.6403)" overflow="visible"/>
</svg>
