<?xml version="1.0" encoding="utf-8"?>
<!-- Generator: Adobe Illustrator 18.0.0, SVG Export Plug-In . SVG Version: 6.00 Build 0)  -->
<!DOCTYPE svg PUBLIC "-//W3C//DTD SVG 1.1//EN" "http://www.w3.org/Graphics/SVG/1.1/DTD/svg11.dtd">
<svg version="1.1" id="Layer_1" xmlns="http://www.w3.org/2000/svg" xmlns:xlink="http://www.w3.org/1999/xlink" x="0px" y="0px"
	 viewBox="0 0 44.5 44.5" enable-background="new 0 0 44.5 44.5" xml:space="preserve">
<g>
	
		<path fill="none" stroke="#ADADAD" stroke-width="0.2973" stroke-linecap="round" stroke-linejoin="round" stroke-miterlimit="10" d="
		M19.2,30.7c0.1,0.1,0.6,0.8,0,3.1c-0.6,2.3-0.7,4.2-0.7,4.2s1.5,0.7,3.3,0.4c0.9-0.1,1-4.8,1.5-6.5"/>
	
		<path fill="none" stroke="#ADADAD" stroke-width="0.1486" stroke-linecap="round" stroke-linejoin="round" stroke-miterlimit="10" d="
		M29.4,23.9c0,0-1.5,1.6-1,4.2c0.5,2.6,2.6,3.8,4,3.7c1.2,0,1.6,3.3,1.6,3.3c-0.1,1.7-1.6,2.6-0.8,3.2s3.3,0.3,3.3,0.3
		s2.1-6,1.6-6.5c-0.5-0.5-2.2-2-2.1-3.4s0.4-3.6-0.7-4.8"/>
	<g>
		<g>
			<path fill="#ADADAD" d="M32.5,20.3c0.3,0,0.5,0,0.5-0.3c0-0.4,0.3-0.6,0.8-0.7c1.1,1.5,1,2.4-0.3,2.6c-0.8,0.2-1.5,0.1-2.2-0.2
				c-1.8-0.8-0.6-3.1,0.8-3.6c1.9-0.7,4.3-0.3,5.5,1.4c1.1,1.6-0.7,3.7-1.9,4.7c-0.1,0.1,0,0.2,0.1,0.1c1.7-1.4,3.5-4.3,1-5.9
				c-1.9-1.2-6.6-1.3-6.8,1.8c-0.1,2.2,4.1,2.8,5,1c0.3-0.6,0.4-1.7-0.5-1.9c-0.5-0.1-0.9-0.2-1.4,0c-0.4,0.1-0.2,1-0.7,0.9
				C32.4,20.1,32.4,20.3,32.5,20.3L32.5,20.3z"/>
		</g>
	</g>
	<g>
		
			<path fill="none" stroke="#ADADAD" stroke-width="0.2973" stroke-linecap="round" stroke-linejoin="round" stroke-miterlimit="10" d="
			M13.8,8c-1.5,0.6-8.8,3.7-4.8,10.9c2.6,4.6,8.1,3.7,10.1,3.1c1.9-0.9,6.6-3.9,5.5-9.1C22.9,5,15.4,7.4,13.8,8z"/>
		<g>
			<path fill="none" stroke="#ADADAD" stroke-linecap="round" stroke-linejoin="round" stroke-miterlimit="10" d="M5.7,15.8
				c0.4,0,0.8-0.1,1.2-0.3c1.2-0.8,1.1-4,2.9-5.1v0c0.1-0.1,0.3-0.2,0.4-0.2c0,0-2.3-0.6-2.8-0.5c-0.4,0-0.8,0.2-1,0.6
				c0,0,0,0,0,0.1c-0.6,1.3-1.3,4.1-2.1,4.6c0,0,0,0,0,0c0,0,0,0,0,0c0,0-0.2,0-0.2,0c0,0-0.3,0.1-0.3,0.1v0c0,0,0.2,0,0.2,0
				c0,0.1,0.1-0.2,0.3,0c0.2,0.1,0.5-0.1,0.8-0.1h0c0.2,1,0.4,0.5,0.6,0.5"/>
			<path fill="none" stroke="#ADADAD" stroke-linecap="round" stroke-linejoin="round" stroke-miterlimit="10" d="M25.8,7.2
				c0,0,0,0.2,0,0.2h0c0,0-0.1-0.3-0.1-0.3c0,0,0-0.1,0-0.1c0,0,0-0.1,0-0.1c0,0,0,0,0,0c-0.9,0.1-3.3-1.5-4.6-2c0,0,0,0-0.1,0
				c-0.4-0.1-0.8,0-1.1,0.2c-0.4,0.3-1.7,2.3-1.7,2.3c0.2-0.1,0.5-0.1,0.5-0.1v0c2-0.4,4.1,2.1,5.5,1.9C24.6,9,25,8.8,25.3,8.5
				c0,0-0.2,0-0.2,0c0.2-0.1,0.2-0.3,0.2-0.5v0c0-0.2,0.5-0.4,0.5-0.6C25.8,7.3,26,7.2,25.8,7.2z"/>
		</g>
	</g>
	<g>
		<g>
			<path fill="#ADADAD" d="M23.3,18.7c-0.1,1.3,1.6,1.4,2.7,1.5c1.6,0.2,3.1-0.2,4.6-0.7c0.1,0,0.1-0.2,0-0.2
				c-0.9,0.3-1.8,0.6-2.7,0.7c-0.9,0.1-4.4,0.2-4.3-1.3C23.4,18.6,23.3,18.6,23.3,18.7L23.3,18.7z"/>
		</g>
	</g>
	<g>
		<g>
			<path fill="#ADADAD" d="M15.1,22.4c-2,4.2,0.8,7.9,4.3,9.9c0.1,0.1,0.2-0.1,0.1-0.2c-1.5-0.9-3-1.8-3.9-3.3
				c-1.1-1.7-1.2-4.6-0.3-6.4C15.3,22.4,15.1,22.3,15.1,22.4L15.1,22.4z"/>
		</g>
	</g>
	<g>
		<g>
			<path fill="#ADADAD" d="M15.7,29.3c1.5,2.1,1.2,5.5,0,7.7c0,0.1,0,0.1,0.1,0.1c0.7,0.3,1.7,0.3,2.4,0.2c0.1,0,0.1-0.2,0-0.2
				c-0.4,0.1-2.3,0.1-2.1-0.4c0.4-0.8,0.6-1.8,0.7-2.7c0.2-1.6,0.1-3.6-0.9-5C15.8,29.1,15.6,29.2,15.7,29.3L15.7,29.3z"/>
		</g>
	</g>
	<g>
		<g>
			<path fill="#ADADAD" d="M25.4,32c1.5,0.1,2.6,0.9,3,2.3c0.4,1.4-0.4,2.6-0.7,3.9c-0.2,0.8,1.6,0.3,1.7,0.3
				c0.5-0.1,1.8-0.4,2.1-0.9c0.2-0.4,0-1.8,0-2.3c0-1.2,0.1-2.4,0.3-3.6c0-0.1-0.2-0.2-0.2,0c-0.2,1.7-0.3,3.4-0.3,5.1
				c0,0.9-0.1,1-0.9,1.3c-0.6,0.2-2.8,1-2.3-0.4c1-2.5,0.5-5.6-2.7-5.8C25.3,31.8,25.3,32,25.4,32L25.4,32z"/>
		</g>
	</g>
	<g>
		<g>
			<path fill="#ADADAD" d="M29.1,29.8c-1.3,1.4-4,2.5-5.9,2.4c-0.1,0-0.1,0.2,0,0.2c2,0.2,4.7-1,6-2.4
				C29.3,29.8,29.2,29.7,29.1,29.8L29.1,29.8z"/>
		</g>
	</g>
</g>
</svg>
