<?xml version="1.0" encoding="utf-8"?>
<!-- Generator: Adobe Illustrator 18.0.0, SVG Export Plug-In . SVG Version: 6.00 Build 0)  -->
<!DOCTYPE svg PUBLIC "-//W3C//DTD SVG 1.1//EN" "http://www.w3.org/Graphics/SVG/1.1/DTD/svg11.dtd">
<svg version="1.1" id="Layer_1" xmlns="http://www.w3.org/2000/svg" xmlns:xlink="http://www.w3.org/1999/xlink" x="0px" y="0px"
	 viewBox="0 0 43.6 38.5" enable-background="new 0 0 43.6 38.5" xml:space="preserve">
<symbol  id="chat" viewBox="-27.2 -18.8 54.4 37.6">
	<path fill="none" stroke="#7D7D7D" stroke-miterlimit="10" d="M-1.7-7.5c-0.1,0-0.1-0.1-0.1-0.2c0-0.1,0-0.2,0.1-0.2
		c2.6-2.1,6.2-3.5,10.2-3.9c0.1,0,0.1,0,0.2-0.1c0-0.1,0.1-0.1,0.1-0.2c-0.3-2.4-0.8-4.7-1-5.9c0-0.1,0-0.2,0.1-0.3
		c0.1-0.1,0.2-0.1,0.3,0c3.6,2.8,5.9,5.5,6.9,6.8c0.1,0.1,0.1,0.1,0.2,0.1C21.9-9.7,26.7-5,26.7,0.5c0,6.8-7.4,12.3-16.4,12.3
		c-1,0-2-0.1-3-0.2c-0.1,0-0.1-0.1-0.2-0.1c0-0.1,0-0.2,0-0.2"/>
	<path fill="none" stroke="#7D7D7D" stroke-miterlimit="10" d="M6.2,6c0,6.8-7.4,12.3-16.4,12.3c-9.1,0-16.4-5.5-16.4-12.3
		c0-5.5,4.8-10.2,11.4-11.7c0.1,0,0.2-0.1,0.2-0.1c1.1-1.4,3.4-4.1,6.9-6.8c0.1-0.1,0.2-0.1,0.3,0c0.1,0.1,0.1,0.2,0.1,0.3
		C-8-11.3-8.5-9-8.7-6.6c0,0.1,0,0.1,0.1,0.2c0,0.1,0.1,0.1,0.2,0.1C-0.2-5.6,6.2-0.4,6.2,6z"/>
</symbol>
<use xlink:href="#chat"  width="54.4" height="37.6" id="XMLID_27_" x="-27.2" y="-18.8" transform="matrix(0.6518 0 0 -0.6518 21.7235 19.0388)" overflow="visible"/>
</svg>
